<mxfile host="app.diagrams.net" modified="2023-10-09T06:50:37.044Z" agent="Mozilla/5.0 (Macintosh; Intel Mac OS X 10_15_7) AppleWebKit/537.36 (KHTML, like Gecko) Chrome/117.0.0.0 Safari/537.36" version="22.0.4" etag="CX3LFpcVhl2HDeB3LHtt" type="github">
  <diagram name="第 1 页" id="zrb9tOiuhmj_fzCseU0Y">
    <mxGraphModel>
      <root>
        <mxCell id="0" />
        <mxCell id="1" parent="0" />
      </root>
    </mxGraphModel>
  </diagram>
</mxfile>
